:SAMPLES-PER-SECOND 30
:FULLY-SPECIFIED
:DEGREES
368
root  -10.187 33.5251 9.14488 -138.765 -0.341599 -179.685
RightUpLeg  -60.4656 -8.46206 8.32846
RightLeg  19.0416 1.03154 0.281685
RightFoot  9.23922 0.0309567 0.208101
RightToes  -22.6765 -0.0973727 -0.198972
Spine  9.66109 1.49455 0.783924
Spine1  18.0402 3.66166 0.924562
HEad  -31.8364 -2.81538 -0.227931
LeftShoulder1  -1.94126e-019 -3.10601e-018 -2.51263e-017
LeftArm  -3.58806 -17.0905 -82.6214
LeftForeArm  23.9894 -21.9486 -3.36467
LeftHand  -0.419128 -0.400876 8.50023
RightShoulder  -4.96962e-017 0 -2.36833e-017
RightArm  -21.0662 9.412 74.9514
RightForeArm  42.3447 19.8252 2.09226
RightHand  -0.262046 -3.67892 -17.1343
LeftUpLeg  -61.7267 2.23905 1.92258
LeftLeg  23.1642 12.0052 4.20519
LeftFoot  9.99241 -0.186409 2.2936
LeftToes  -23.1231 2.14545e-006 -7.7278e-009
369
root  -10.1833 33.4953 9.25061 -137.598 -0.512222 -179.815
RightUpLeg  -62.012 -8.68678 8.78248
RightLeg  19.317 1.32126 0.367947
RightFoot  9.23962 0.0290727 0.238426
RightToes  -22.3351 -0.0961563 -0.197984
Spine  9.87286 1.26933 0.767763
Spine1  18.363 3.15751 0.930522
HEad  -31.2103 -2.29197 -0.291275
LeftShoulder1  -1.94126e-019 -3.10601e-018 -2.51263e-017
LeftArm  -3.82933 -18.2279 -82.5123
LeftForeArm  23.8131 -21.8297 -3.35005
LeftHand  -0.431405 -0.421396 8.71798
RightShoulder  -4.96962e-017 0 -2.36833e-017
RightArm  -20.8979 10.0355 75.0517
RightForeArm  42.6964 19.8293 2.0772
RightHand  -0.282125 -3.51643 -16.9101
LeftUpLeg  -62.9611 1.93455 2.04448
LeftLeg  22.9077 12.1762 4.20361
LeftFoot  10.3981 -0.203662 2.39954
LeftToes  -23.3224 2.14545e-006 -7.7278e-009
370
root  -10.1682 33.4664 9.3042 -136.899 -0.55426 -179.771
RightUpLeg  -62.9072 -8.482 8.89068
RightLeg  19.5571 1.21749 0.344301
RightFoot  9.26855 0.0311578 0.210598
RightToes  -22.2592 -0.0950833 -0.197325
Spine  10.1055 1.10417 0.726412
Spine1  18.7282 2.78945 0.881455
HEad  -31.5357 -1.5971 -0.133216
LeftShoulder1  -1.94126e-019 -3.10601e-018 -2.51263e-017
LeftArm  -3.6168 -19.2759 -82.3804
LeftForeArm  23.8613 -21.5448 -3.29106
LeftHand  -0.4299 -0.251922 8.93384
RightShoulder  -4.96962e-017 0 -2.36833e-017
RightArm  -20.3029 10.4752 75.2129
RightForeArm  42.6869 20.2157 2.14939
RightHand  -0.279575 -3.50065 -16.6075
LeftUpLeg  -63.694 2.04919 1.99395
LeftLeg  22.7372 12.0999 4.13794
LeftFoot  10.5556 -0.207357 2.40595
LeftToes  -23.1317 2.14545e-006 -7.7278e-009
371
root  -10.1495 33.4539 9.33995 -136.269 -0.717072 -179.728
RightUpLeg  -63.6017 -8.39461 9.07785
RightLeg  19.5945 1.14466 0.324383
RightFoot  9.32362 0.0325144 0.191832
RightToes  -22.1341 -0.0942035 -0.196951
Spine  10.1693 0.922407 0.706498
Spine1  18.7894 2.36395 0.909575
HEad  -32.5527 -1.1481 0.0623744
LeftShoulder1  -1.94126e-019 -3.10601e-018 -2.51263e-017
LeftArm  -2.79363 -20.2276 -82.3329
LeftForeArm  23.8105 -20.9348 -3.1734
LeftHand  -0.428018 -0.190236 8.98786
RightShoulder  -4.96962e-017 0 -2.36833e-017
RightArm  -19.5366 10.9094 75.4022
RightForeArm  42.4621 20.4209 2.1978
RightHand  -0.274911 -3.5371 -16.6371
LeftUpLeg  -64.2723 1.99511 2.11908
LeftLeg  22.4495 12.1256 4.07943
LeftFoot  10.7791 -0.215767 2.44828
LeftToes  -23.0037 2.14545e-006 -7.7278e-009
372
root  -10.1361 33.4511 9.34123 -135.917 -0.987839 -179.696
RightUpLeg  -63.9308 -8.56537 9.40232
RightLeg  19.5354 1.2322 0.347991
RightFoot  9.31897 0.0318692 0.200413
RightToes  -22.1125 -0.0935668 -0.196819
Spine  10.128 0.739051 0.727054
Spine1  18.6664 1.94382 0.993676
HEad  -33.5999 -0.716824 0.1634
LeftShoulder1  -1.94126e-019 -3.10601e-018 -2.51263e-017
LeftArm  -1.86051 -21.1126 -82.5086
LeftForeArm  23.8645 -20.0103 -2.99019
LeftHand  -0.428606 -0.344408 8.77146
RightShoulder  -4.96962e-017 0 -2.36833e-017
RightArm  -19.0597 11.2395 75.6269
RightForeArm  42.5258 20.5741 2.22352
RightHand  -0.27623 -3.48262 -16.5171
LeftUpLeg  -64.5295 2.04113 2.09061
LeftLeg  22.1309 11.8584 3.91857
LeftFoot  10.9514 -0.216623 2.42167
LeftToes  -23.1133 2.14545e-006 -7.7278e-009
373
root  -10.1201 33.4615 9.30832 -135.805 -1.14493 -179.616
RightUpLeg  -63.8886 -8.52524 9.49733
RightLeg  19.3854 1.09896 0.307133
RightFoot  9.35571 0.0331606 0.18017
RightToes  -22.1516 -0.0932234 -0.196884
Spine  9.972 0.638729 0.739834
Spine1  18.3487 1.69669 1.07439
HEad  -34.6106 -0.514223 0.186884
LeftShoulder1  -1.94126e-019 -3.10601e-018 -2.51263e-017
LeftArm  -1.26549 -21.7705 -82.9178
LeftForeArm  24.0094 -19.2056 -2.82754
LeftHand  -0.415126 -0.455098 8.34632
RightShoulder  -4.96962e-017 0 -2.36833e-017
RightArm  -18.8616 11.4197 75.861
RightForeArm  42.6945 20.7809 2.25459
RightHand  -0.281872 -3.39782 -16.3073
LeftUpLeg  -64.456 2.16205 2.0795
LeftLeg  21.7931 11.6506 3.77574
LeftFoot  11.0423 -0.21568 2.39255
LeftToes  -23.3483 2.14545e-006 -7.7278e-009
374
root  -10.1079 33.4933 9.24349 -135.882 -1.20099 -179.525
RightUpLeg  -63.5416 -8.37005 9.41266
RightLeg  19.1462 0.85825 0.235728
RightFoot  9.42135 0.0351198 0.149322
RightToes  -21.9527 -0.093223 -0.197103
Spine  9.70133 0.608534 0.747432
Spine1  17.8474 1.62687 1.10781
HEad  -35.6277 -0.48954 0.0836291
LeftShoulder1  -1.94126e-019 -3.10601e-018 -2.51263e-017
LeftArm  -1.11856 -22.1366 -83.4845
LeftForeArm  23.931 -18.7658 -2.75448
LeftHand  -0.52033 -0.877091 9.7704
RightShoulder  -4.96962e-017 0 -2.36833e-017
RightArm  -18.4214 11.44 76.0364
RightForeArm  42.6144 21.0758 2.31355
RightHand  -0.284778 -3.41963 -16.2349
LeftUpLeg  -64.1256 2.32941 2.03717
LeftLeg  21.4653 11.4771 3.64864
LeftFoot  11.0534 -0.212684 2.35934
LeftToes  -23.0717 2.14545e-006 -7.7278e-009
375
root  -10.0939 33.5181 9.09993 -136.659 -1.07915 -179.37
RightUpLeg  -62.3558 -8.28814 9.28965
RightLeg  18.8583 0.789252 0.212521
RightFoot  9.39904 0.035181 0.14463
RightToes  -22.0724 -0.0936155 -0.19743
Spine  9.51419 0.650019 0.716137
Spine1  17.4881 1.70109 1.08421
HEad  -36.4607 -0.537211 -0.0623836
LeftShoulder1  -1.94126e-019 -3.10601e-018 -2.51263e-017
LeftArm  -1.9233 -22.2875 -84.2518
LeftForeArm  24.0077 -18.4588 -2.70466
LeftHand  -0.438547 -0.538158 8.69642
RightShoulder  -4.96962e-017 0 -2.36833e-017
RightArm  -18.2903 11.4687 76.3004
RightForeArm  42.7561 21.2592 2.34161
RightHand  -0.296151 -3.32892 -16.1729
LeftUpLeg  -63.172 2.67956 1.9393
LeftLeg  21.5932 11.2639 3.60933
LeftFoot  10.7405 -0.196889 2.25579
LeftToes  -23.2924 2.14545e-006 -7.7278e-009
376
root  -10.0875 33.5551 8.92533 -137.931 -1.11455 -179.391
RightUpLeg  -60.6699 -8.80476 9.34705
RightLeg  18.5389 1.09985 0.29033
RightFoot  9.22641 0.0308324 0.202075
RightToes  -22.2665 -0.094451 -0.197823
Spine  9.30499 0.642436 0.705391
Spine1  17.1132 1.6971 1.05704
HEad  -37.2918 -0.630873 -0.303893
LeftShoulder1  -1.94126e-019 -3.10601e-018 -2.51263e-017
LeftArm  -2.08982 -22.1433 -84.9053
LeftForeArm  23.3375 -18.833 -2.79465
LeftHand  -0.427064 -0.0839917 9.13252
RightShoulder  -4.96962e-017 0 -2.36833e-017
RightArm  -17.7865 11.3188 76.4486
RightForeArm  42.3431 21.5922 2.42328
RightHand  -0.273517 -3.48472 -16.0896
LeftUpLeg  -61.7878 2.57045 2.05875
LeftLeg  21.9854 11.2912 3.70255
LeftFoot  10.3149 -0.182529 2.18363
LeftToes  -23.2469 2.14545e-006 -7.7278e-009
377
root  -10.0862 33.6202 8.72928 -139.287 -1.10088 -179.397
RightUpLeg  -58.6957 -9.22223 9.22508
RightLeg  17.9342 1.3212 0.334425
RightFoot  9.22519 0.0267155 0.255434
RightToes  -22.7088 -0.0970683 -0.198237
Spine  8.90434 0.730909 0.689333
Spine1  16.4221 1.92151 0.991954
HEad  -37.9749 -0.818817 -0.587323
LeftShoulder1  -1.94126e-019 -3.10601e-018 -2.51263e-017
LeftArm  -1.75017 -21.7597 -85.5509
LeftForeArm  22.8341 -19.3416 -2.91276
LeftHand  -0.433152 -0.0056798 9.38949
RightShoulder  -4.96962e-017 0 -2.36833e-017
RightArm  -17.7237 10.8971 76.6123
RightForeArm  42.3103 21.7855 2.4614
RightHand  -0.26972 -3.51597 -16.1184
LeftUpLeg  -60.1877 2.53414 2.14031
LeftLeg  22.2084 11.2641 3.74191
LeftFoot  9.94761 -0.170335 2.1186
LeftToes  -23.8063 2.14545e-006 -7.7278e-009
